<svg xmlns="http://www.w3.org/2000/svg" viewBox="0 0 980 300" role="img" aria-labelledby="title desc">
  <title id="title">TorchBloom AI logo</title>
  <desc id="desc">TorchBloom AI wordmark with a torch, sprout, and learning-path icon.</desc>
  <rect width="980" height="300" rx="44" fill="#f8faf7"/>
  <g transform="translate(62 43) scale(.42)">
    <rect width="512" height="512" rx="96" fill="#ffffff"/>
    <path d="M109 390c54 38 239 38 293 0" fill="none" stroke="#1d2433" stroke-width="18" stroke-linecap="round"/>
    <path d="M256 404V230" fill="none" stroke="#1d2433" stroke-width="20" stroke-linecap="round"/>
    <path d="M256 245c-50-45-54-96-16-142 9 45 42 61 61 91 27 43 7 87-45 113z" fill="#ffb23f"/>
    <path d="M245 251c-27-31-20-66 9-99 5 32 25 46 36 67 15 29 2 54-45 72z" fill="#f9733d"/>
    <path d="M257 260c-28-47-14-82 26-113-2 35 18 51 38 72 33 35 26 83-64 104z" fill="#ffd166" opacity=".9"/>
    <path d="M256 310c-49-47-100-45-139-10 48 8 76 32 101 66 20-10 33-29 38-56z" fill="#37a169"/>
    <path d="M259 310c46-48 96-48 136-14-48 11-74 34-99 69-21-10-33-28-37-55z" fill="#2fb7a4"/>
    <path d="M130 202c35-39 75-66 126-78 51 12 91 39 126 78" fill="none" stroke="#2f80ed" stroke-width="10" stroke-linecap="round" stroke-dasharray="1 28"/>
    <circle cx="130" cy="202" r="13" fill="#2f80ed"/>
    <circle cx="256" cy="124" r="13" fill="#2f80ed"/>
    <circle cx="382" cy="202" r="13" fill="#2f80ed"/>
  </g>
  <text x="320" y="127" fill="#1d2433" font-family="Inter, ui-sans-serif, system-ui, -apple-system, BlinkMacSystemFont, Segoe UI, sans-serif" font-size="66" font-weight="800">TorchBloom AI</text>
  <text x="323" y="180" fill="#2f6657" font-family="Inter, ui-sans-serif, system-ui, -apple-system, BlinkMacSystemFont, Segoe UI, sans-serif" font-size="30" font-weight="650">Mastery learning from math to real AI</text>
  <path d="M326 215h404" fill="none" stroke="#ffb23f" stroke-width="10" stroke-linecap="round"/>
  <circle cx="760" cy="215" r="10" fill="#2f80ed"/>
  <circle cx="804" cy="215" r="10" fill="#37a169"/>
  <circle cx="848" cy="215" r="10" fill="#f9733d"/>
</svg>
