<svg xmlns="http://www.w3.org/2000/svg" viewBox="0 0 1600 500" role="img" aria-labelledby="title desc">
  <title id="title">TorchBloom AI title banner</title>
  <desc id="desc">A warm TorchBloom AI banner showing a torch, sprout, learning path, and project tagline.</desc>
  <rect width="1600" height="500" fill="#f8faf7"/>
  <path d="M0 430c206-58 362-63 535-16 191 52 351 47 547-27 180-68 338-78 518-24v137H0z" fill="#e8f4ee"/>
  <path d="M0 453c225-45 393-44 553 5 193 59 343 49 548-26 185-68 333-69 499-11v79H0z" fill="#d8efe8"/>
  <g transform="translate(120 72) scale(.62)">
    <rect width="512" height="512" rx="96" fill="#ffffff"/>
    <path d="M109 390c54 38 239 38 293 0" fill="none" stroke="#1d2433" stroke-width="18" stroke-linecap="round"/>
    <path d="M256 404V230" fill="none" stroke="#1d2433" stroke-width="20" stroke-linecap="round"/>
    <path d="M256 245c-50-45-54-96-16-142 9 45 42 61 61 91 27 43 7 87-45 113z" fill="#ffb23f"/>
    <path d="M245 251c-27-31-20-66 9-99 5 32 25 46 36 67 15 29 2 54-45 72z" fill="#f9733d"/>
    <path d="M257 260c-28-47-14-82 26-113-2 35 18 51 38 72 33 35 26 83-64 104z" fill="#ffd166" opacity=".9"/>
    <path d="M256 310c-49-47-100-45-139-10 48 8 76 32 101 66 20-10 33-29 38-56z" fill="#37a169"/>
    <path d="M259 310c46-48 96-48 136-14-48 11-74 34-99 69-21-10-33-28-37-55z" fill="#2fb7a4"/>
    <path d="M130 202c35-39 75-66 126-78 51 12 91 39 126 78" fill="none" stroke="#2f80ed" stroke-width="10" stroke-linecap="round" stroke-dasharray="1 28"/>
    <circle cx="130" cy="202" r="13" fill="#2f80ed"/>
    <circle cx="256" cy="124" r="13" fill="#2f80ed"/>
    <circle cx="382" cy="202" r="13" fill="#2f80ed"/>
  </g>
  <text x="505" y="180" fill="#1d2433" font-family="Inter, ui-sans-serif, system-ui, -apple-system, BlinkMacSystemFont, Segoe UI, sans-serif" font-size="92" font-weight="850">TorchBloom AI</text>
  <text x="510" y="242" fill="#2f6657" font-family="Inter, ui-sans-serif, system-ui, -apple-system, BlinkMacSystemFont, Segoe UI, sans-serif" font-size="38" font-weight="700">Light the lamp. Grow the mind. Build real AI.</text>
  <text x="510" y="303" fill="#394150" font-family="Inter, ui-sans-serif, system-ui, -apple-system, BlinkMacSystemFont, Segoe UI, sans-serif" font-size="28" font-weight="500">A mastery-based path from elementary math to machine learning, deep learning, and AI Olympiad readiness.</text>
  <path d="M520 356c106-72 208-72 306 0s207 72 327 0 221-72 330 0" fill="none" stroke="#2f80ed" stroke-width="9" stroke-linecap="round" stroke-dasharray="1 28"/>
  <circle cx="520" cy="356" r="16" fill="#2f80ed"/>
  <circle cx="665" cy="319" r="16" fill="#37a169"/>
  <circle cx="826" cy="356" r="16" fill="#ffb23f"/>
  <circle cx="994" cy="389" r="16" fill="#f9733d"/>
  <circle cx="1153" cy="356" r="16" fill="#2fb7a4"/>
  <circle cx="1323" cy="321" r="16" fill="#2f80ed"/>
  <circle cx="1483" cy="356" r="16" fill="#37a169"/>
</svg>
